<?xml version="1.0" encoding="UTF-8" standalone="no"?>
<!-- Created with Inkscape (http://www.inkscape.org/) -->

<svg
   xmlns:dc="http://purl.org/dc/elements/1.1/"
   xmlns:cc="http://creativecommons.org/ns#"
   xmlns:rdf="http://www.w3.org/1999/02/22-rdf-syntax-ns#"
   xmlns:svg="http://www.w3.org/2000/svg"
   xmlns="http://www.w3.org/2000/svg"
   xmlns:sodipodi="http://sodipodi.sourceforge.net/DTD/sodipodi-0.dtd"
   xmlns:inkscape="http://www.inkscape.org/namespaces/inkscape"
   width="90mm"
   height="90mm"
   viewBox="0 0 318.89764 318.89763"
   id="svg2"
   version="1.1"
   inkscape:version="0.91 r13725"
   sodipodi:docname="o.svg">
  <defs
     id="defs4" />
  <sodipodi:namedview
     id="base"
     pagecolor="#ffffff"
     bordercolor="#666666"
     borderopacity="1.0"
     inkscape:pageopacity="0.0"
     inkscape:pageshadow="2"
     inkscape:zoom="1.4"
     inkscape:cx="24.45756"
     inkscape:cy="157.97058"
     inkscape:document-units="px"
     inkscape:current-layer="layer1"
     showgrid="false"
     fit-margin-top="10"
     fit-margin-right="10"
     fit-margin-left="10"
     fit-margin-bottom="10"
     inkscape:window-width="1916"
     inkscape:window-height="1048"
     inkscape:window-x="0"
     inkscape:window-y="30"
     inkscape:window-maximized="0" />
  <metadata
     id="metadata7">
    <rdf:RDF>
      <cc:Work
         rdf:about="">
        <dc:format>image/svg+xml</dc:format>
        <dc:type
           rdf:resource="http://purl.org/dc/dcmitype/StillImage" />
        <dc:title></dc:title>
      </cc:Work>
    </rdf:RDF>
  </metadata>
  <g
     inkscape:label="Layer 1"
     inkscape:groupmode="layer"
     id="layer1"
     transform="translate(-121.08264,-268.81688)">
    <path
       style="fill:#000000;fill-opacity:1;fill-rule:nonzero;stroke:none;stroke-width:1px;stroke-linecap:butt;stroke-linejoin:miter;stroke-opacity:1"
       id="path3352"
       d="m 184.72727,338.74121 c 0.50219,-0.095 1.00958,-0.16563 1.50656,-0.28489 0.99085,-0.23777 4.435,-1.25012 5.17407,-1.4637 4.98201,-1.43978 9.92818,-2.97135 14.92075,-4.37802 7.03144,-1.51197 10.0885,-2.42837 17.63184,-2.81177 15.97475,-0.81193 32.20627,1.17662 47.85928,4.17639 6.95025,1.33195 13.8096,3.10091 20.7144,4.65136 21.4634,5.02605 42.07871,13.02541 61.5043,23.41969 11.46466,6.13453 20.84286,11.97866 30.44163,20.71186 3.80156,3.45876 7.01977,7.50883 10.52965,11.26324 2.56532,3.75897 5.50544,7.28788 7.69594,11.27692 5.98794,10.90434 8.3917,22.81967 4.60616,34.93633 -3.51326,11.24516 -8.41707,16.1793 -15.34923,25.67498 -4.62561,4.36002 -8.88439,9.14541 -13.87684,13.08007 -5.75412,4.53497 -11.89818,8.59814 -18.25369,12.24277 -19.27847,11.05542 -31.87939,16.88455 -52.71592,22.96662 -21.2054,6.18973 -31.72778,7.14538 -53.50072,10.5941 -21.94225,1.6845 -26.70739,2.84746 -48.05045,1.57328 -6.22097,-0.37139 -12.46666,-0.86818 -18.58048,-2.0763 -9.56524,-1.89013 -18.22672,-4.77376 -24.86728,-12.35022 -2.95031,-3.36612 -4.43828,-7.77445 -6.65742,-11.66167 -1.00422,-5.09949 -2.50808,-10.1256 -3.01266,-15.29848 -1.25499,-12.86598 -0.0286,-28.38182 1.64827,-41.01118 2.07536,-15.63049 5.42571,-31.27447 9.76825,-46.42713 2.13995,-7.46706 4.81989,-14.76869 7.22984,-22.15304 2.62677,-6.54173 5.25353,-13.08346 7.8803,-19.62519 0,0 7.09583,-3.27585 7.09583,-3.27585 l 0,0 c -2.71996,6.56545 -5.43991,13.13089 -8.15987,19.69634 -2.4416,7.37891 -5.16928,14.66924 -7.3248,22.13674 -4.35004,15.07018 -7.65096,30.62108 -9.57013,46.19561 -1.5839,12.85373 -2.45795,27.40753 -0.97618,40.40164 0.57544,5.04621 2.09013,9.94045 3.1352,14.91068 2.16866,3.77878 3.64819,8.04769 6.50599,11.33634 6.37145,7.33205 14.77343,10.39624 23.98969,12.3894 5.94493,1.28568 12.03149,1.89059 18.09827,2.32569 20.84984,1.49533 25.96304,0.29163 47.42736,-1.27693 9.0055,-1.44501 18.07585,-2.53178 27.01651,-4.33504 20.53981,-4.14272 31.84942,-7.61706 51.20776,-15.26289 5.1826,-2.04693 10.3644,-4.18706 15.20321,-6.95024 17.09143,-9.75999 17.89699,-11.938 31.49996,-24.75469 6.78177,-9.28447 11.56477,-14.11078 15.05059,-25.07867 3.76934,-11.8599 1.58933,-23.64256 -4.11118,-34.44168 -2.10166,-3.98141 -4.94806,-7.5227 -7.42209,-11.28405 -3.41002,-3.76504 -6.52274,-7.82244 -10.23008,-11.29513 -9.24275,-8.65774 -18.73777,-14.80891 -29.86808,-20.8698 -12.83914,-6.99142 -26.27901,-12.82791 -40.1721,-17.38767 -6.98095,-2.29117 -14.16483,-3.91027 -21.24724,-5.86541 -6.97405,-1.4795 -13.90136,-3.19965 -20.92216,-4.4385 -15.97497,-2.81885 -32.49641,-4.46836 -48.72579,-3.25532 -7.66556,0.57294 -10.80458,1.56232 -17.93933,3.23076 -5.10758,1.50873 -10.17309,3.13598 -15.27656,4.6559 -1.6296,0.48533 -3.70503,1.1212 -5.40271,1.5042 -0.54223,0.12233 -1.09445,0.19517 -1.64168,0.29275 0,0 8.51306,-6.3302 8.51306,-6.3302 z"
       inkscape:connector-curvature="0" />
  </g>
</svg>
