<?xml version="1.0" encoding="UTF-8" standalone="no"?>
<!-- Created with Inkscape (http://www.inkscape.org/) -->

<svg
   xmlns:dc="http://purl.org/dc/elements/1.1/"
   xmlns:cc="http://creativecommons.org/ns#"
   xmlns:rdf="http://www.w3.org/1999/02/22-rdf-syntax-ns#"
   xmlns:svg="http://www.w3.org/2000/svg"
   xmlns="http://www.w3.org/2000/svg"
   xmlns:sodipodi="http://sodipodi.sourceforge.net/DTD/sodipodi-0.dtd"
   xmlns:inkscape="http://www.inkscape.org/namespaces/inkscape"
   width="90mm"
   height="90mm"
   viewBox="0 0 318.89764 318.89763"
   id="svg2"
   version="1.1"
   inkscape:version="0.91 r13725"
   sodipodi:docname="x.svg">
  <defs
     id="defs4" />
  <sodipodi:namedview
     id="base"
     pagecolor="#ffffff"
     bordercolor="#666666"
     borderopacity="1.0"
     inkscape:pageopacity="0.0"
     inkscape:pageshadow="2"
     inkscape:zoom="1.4"
     inkscape:cx="24.45756"
     inkscape:cy="157.97058"
     inkscape:document-units="px"
     inkscape:current-layer="layer1"
     showgrid="false"
     fit-margin-top="10"
     fit-margin-right="10"
     fit-margin-left="10"
     fit-margin-bottom="10"
     inkscape:window-width="1916"
     inkscape:window-height="1048"
     inkscape:window-x="0"
     inkscape:window-y="30"
     inkscape:window-maximized="0" />
  <metadata
     id="metadata7">
    <rdf:RDF>
      <cc:Work
         rdf:about="">
        <dc:format>image/svg+xml</dc:format>
        <dc:type
           rdf:resource="http://purl.org/dc/dcmitype/StillImage" />
        <dc:title></dc:title>
      </cc:Work>
    </rdf:RDF>
  </metadata>
  <g
     inkscape:label="Layer 1"
     inkscape:groupmode="layer"
     id="layer1"
     transform="translate(-121.08264,-268.81688)">
    <g
       id="g3410"
       transform="translate(28.546739,-18.839926)">
      <path
         inkscape:connector-curvature="0"
         d="m 179.64337,332.76241 c 0.39003,0.57462 0.80414,1.13362 1.17009,1.72386 3.03122,4.88898 5.67724,9.99654 8.75913,14.85951 4.04837,6.388 7.56234,11.30179 11.92411,17.59552 18.76877,25.0814 39.04531,48.97732 59.63733,72.5665 14.04056,15.42192 27.85149,31.10963 40.20055,47.9401 5.09533,6.94441 8.97433,12.91143 13.73351,20.03582 7.15016,11.11927 13.19079,22.88916 18.67446,34.90169 0,0 -8.59586,4.83151 -8.59586,4.83151 l 0,0 c -4.98668,-12.19144 -10.71216,-24.08656 -17.70308,-35.27171 -4.73035,-7.30107 -8.33402,-13.02667 -13.40943,-20.16379 -12.06922,-16.97189 -25.5769,-32.87081 -39.66463,-48.18909 -8.23287,-9.34836 -14.49467,-16.37387 -22.5435,-25.84508 -12.92289,-15.2066 -25.56563,-30.65726 -37.93403,-46.31743 -4.43637,-6.04328 -8.29574,-11.18645 -12.50307,-17.31636 -3.23572,-4.71431 -6.07809,-9.73797 -9.4934,-14.3288 -0.4254,-0.57181 -0.91759,-1.09076 -1.37638,-1.63614 0,0 9.1242,-5.38611 9.1242,-5.38611 z"
         id="path3400"
         style="fill:#000000;fill-opacity:1;fill-rule:nonzero;stroke:none;stroke-width:1px;stroke-linecap:butt;stroke-linejoin:miter;stroke-opacity:1" />
      <path
         inkscape:connector-curvature="0"
         d="m 305.67963,350.46975 c -1.19376,4.56896 -3.10306,8.91657 -5.00647,13.22503 -4.0464,8.47018 -7.17655,17.32269 -10.27556,26.16867 -5.82535,16.62821 -1.93072,5.34076 -8.26306,23.90363 -7.31902,22.50783 -13.74228,45.31608 -22.06495,67.48813 -2.10887,5.61814 -4.19399,11.25366 -6.63995,16.73345 -2.28858,5.12722 -5.03348,10.03831 -7.55022,15.05747 -7.44116,10.68772 -9.63566,15.24523 -19.36255,23.85162 -8.41937,7.44949 -21.18876,14.47629 -30.94479,18.78963 -8.60439,3.80417 -16.20293,4.35658 -25.34519,5.76146 0,0 6.89657,-5.17724 6.89657,-5.17724 l 0,0 c 14.77381,-2.38629 10.82971,-1.13894 25.07884,-5.89018 1.71244,-0.57099 3.5096,-1.01897 5.04515,-1.96795 4.05241,-2.50442 8.00959,-5.21345 11.61445,-8.32779 9.89475,-8.54833 12.13442,-13.0829 19.74479,-23.75456 2.58235,-5.0233 5.40512,-9.93012 7.74705,-15.06991 2.4964,-5.47884 4.62025,-11.12207 6.75272,-16.75254 8.32463,-21.97994 14.51442,-44.6643 21.34537,-67.13011 4.80231,-15.1314 3.07197,-9.8094 7.59046,-23.59633 2.85527,-8.71207 5.70819,-17.44695 9.40218,-25.8496 1.76954,-4.19812 3.6465,-8.41874 4.69941,-12.86397 0,0 9.53575,-4.59891 9.53575,-4.59891 z"
         id="path3408"
         style="fill:#000000;fill-opacity:1;fill-rule:nonzero;stroke:none;stroke-width:1px;stroke-linecap:butt;stroke-linejoin:miter;stroke-opacity:1" />
    </g>
  </g>
</svg>
